<?xml version="1.0" standalone="no"?>
<!DOCTYPE svg PUBLIC "-//W3C//DTD SVG 20010904//EN"
 "http://www.w3.org/TR/2001/REC-SVG-20010904/DTD/svg10.dtd">
<svg version="1.0" xmlns="http://www.w3.org/2000/svg"
 width="250.000000pt" height="250.000000pt" viewBox="0 0 250.000000 250.000000"
 preserveAspectRatio="xMidYMid meet">
<metadata>
Created by potrace 1.14, written by Peter Selinger 2001-2017
</metadata>
<g transform="translate(0.000000,250.000000) scale(0.100000,-0.100000)"
fill="#000000" stroke="none">
<path d="M1275 2278 c-82 -18 -199 -84 -263 -149 -67 -66 -155 -193 -191 -274
-36 -80 -71 -175 -64 -175 3 0 1 -6 -5 -13 -10 -12 -48 -181 -56 -249 -2 -18
-4 -76 -5 -129 l-1 -97 -82 -39 c-92 -44 -199 -115 -261 -171 -57 -53 -154
-184 -185 -250 -35 -75 -38 -186 -5 -247 53 -101 185 -193 333 -232 69 -18
279 -24 375 -11 196 27 430 111 558 200 l28 20 77 -52 c104 -69 223 -125 318
-149 278 -70 436 -27 512 138 24 51 26 68 26 181 1 111 -2 133 -27 199 -96
262 -306 502 -582 668 l-81 48 8 50 c10 64 3 245 -12 310 -6 28 -13 57 -15 65
-7 30 -33 97 -64 162 -71 149 -204 226 -336 196z m107 -189 c29 -15 43 -33 66
-81 53 -114 69 -215 62 -384 l-3 -62 -82 6 c-93 5 -198 -11 -261 -40 -79 -36
-126 -100 -148 -203 l-11 -49 -55 -11 c-30 -6 -67 -14 -81 -18 l-27 -7 3 78
c3 66 14 151 29 227 14 72 77 227 127 315 79 140 240 270 314 254 16 -4 47
-15 67 -25z m89 -687 c12 -12 -36 -147 -52 -145 -8 1 -41 7 -74 13 -33 7 -82
13 -108 15 -26 1 -50 5 -53 8 -8 8 21 59 49 86 14 13 41 27 59 31 38 9 169 3
179 -8z m344 -165 c230 -172 399 -434 410 -635 5 -80 -10 -120 -61 -158 -31
-24 -48 -29 -98 -30 -34 -1 -83 4 -111 12 -27 8 -58 16 -68 19 -30 7 -168 78
-224 115 l-52 34 28 35 c41 54 55 79 86 156 60 148 27 290 -85 368 -23 16 -24
19 -13 59 7 24 19 60 28 81 l16 38 38 -22 c21 -11 69 -44 106 -72z m-507 -149
c23 0 42 -4 42 -6 0 -3 -17 -30 -37 -59 l-37 -54 -28 53 c-34 66 -35 78 -5 72
12 -2 41 -5 65 -6z m-252 -87 c14 -40 33 -90 44 -112 24 -47 24 -46 1 -52 -42
-11 -112 12 -141 45 -32 36 -65 98 -75 140 -7 25 -5 27 57 41 34 7 69 13 76
12 8 -1 25 -34 38 -74z m519 -35 c9 -18 17 -42 20 -55 6 -32 -26 -110 -68
-166 l-36 -47 -38 39 c-81 84 -79 78 -46 110 40 37 123 148 123 163 0 20 28
-8 45 -44z m-839 -3 c15 -59 90 -172 154 -231 72 -67 198 -89 287 -51 l42 18
55 -62 c63 -72 64 -69 -39 -120 -260 -130 -590 -161 -787 -74 -101 45 -135 92
-131 180 3 61 86 164 198 247 50 36 193 120 207 120 4 0 11 -12 14 -27z"/>
</g>
</svg>
