<?xml version="1.0" encoding="UTF-8" standalone="no"?>
<!DOCTYPE svg PUBLIC "-//W3C//DTD SVG 1.1//EN" "http://www.w3.org/Graphics/SVG/1.1/DTD/svg11.dtd">
<svg version="1.1" xmlns="http://www.w3.org/2000/svg" xmlns:xlink="http://www.w3.org/1999/xlink" preserveAspectRatio="xMidYMid meet" viewBox="0 0 305 290" width="640" height="608.52"><defs><path d="M117.5 180L152.5 290L0 180L117.5 180Z" id="b54t7XInm"></path><path d="M187.5 180L152.5 290L117.5 180L187.5 180Z" id="a3kVggknW"></path><path d="M152.5 290L305 180L187.5 180L152.5 290Z" id="b16Wy3UzM"></path><path d="M187.5 180L210 110L305 180L187.5 180Z" id="cA8WBLgWs"></path><path d="M245 0L305 180L210 110L245 0Z" id="gF3v7ULbZ"></path><path d="M152.5 67.5L245 0L210 110L152.5 67.5Z" id="d1MYWXHBet"></path><path d="M60 0L245 0L152.5 67.5L60 0Z" id="f4Xtss3Kj0"></path><path d="M152.5 67.5L95 110L60 0L152.5 67.5Z" id="bp6k9Xqy5"></path><path d="M0 180L95 110L60 0L0 180Z" id="ax6UtUWB2"></path><path d="M95 110L117.5 180L0 180L95 110Z" id="b1nrjOZz2P"></path></defs><g><g><g><use xlink:href="#b54t7XInm" opacity="1" fill="#ffe5c8" fill-opacity="1"></use></g><g><use xlink:href="#a3kVggknW" opacity="1" fill="#ff0000" fill-opacity="1"></use></g><g><use xlink:href="#b16Wy3UzM" opacity="1" fill="#ffc3e3" fill-opacity="1"></use></g><g><use xlink:href="#cA8WBLgWs" opacity="1" fill="#ff00ff" fill-opacity="1"></use></g><g><use xlink:href="#gF3v7ULbZ" opacity="1" fill="#dfbaff" fill-opacity="1"></use></g><g><use xlink:href="#d1MYWXHBet" opacity="1" fill="#0000ff" fill-opacity="1"></use></g><g><use xlink:href="#f4Xtss3Kj0" opacity="1" fill="#c5ffff" fill-opacity="1"></use></g><g><use xlink:href="#bp6k9Xqy5" opacity="1" fill="#00ff00" fill-opacity="1"></use></g><g><use xlink:href="#ax6UtUWB2" opacity="1" fill="#dbffb1" fill-opacity="1"></use></g><g><use xlink:href="#b1nrjOZz2P" opacity="1" fill="#ffff00" fill-opacity="1"></use></g></g></g></svg>